# xmcd
#
# Track frame offsets:
#	150
#	15367
#	32734
#	45202
#	58786
#	79332
#	99322
#	119232
#	134245
#	154048
#	174970
#	195594
#	213363
#
# Disc length: 3097 seconds
#
# Revision: 1
# Processed by: cddbd v1.4PL0 Copyright (c) Steve Scherf et al.
# Submitted via: CDmax 2.0
#
DISCID=ab0c170d
DTITLE=A Pocketful Of Blues - Crazy Little Feelin'
DYEAR=2002
DGENRE=Blues
TTITLE0=Crazy Little Feelin'
TTITLE1=Fishin' With Dynamite
TTITLE2=Froggy
TTITLE3=Galuboi Wagon
TTITLE4=Let It Go
TTITLE5=Lovelight
TTITLE6=New Haircut
TTITLE7=Marihuana Boogie
TTITLE8=On A Summer's Day
TTITLE9=Time Is Runnin' Away
TTITLE10=Men And Women
TTITLE11=Wild Cat Blues
TTITLE12=Because You Ain't Mine
EXTD=
EXTT0=
EXTT1=
EXTT2=
EXTT3=
EXTT4=
EXTT5=
EXTT6=
EXTT7=
EXTT8=
EXTT9=
EXTT10=
EXTT11=
EXTT12=
PLAYORDER=
